<?xml version="1.0" standalone="no"?>
<!DOCTYPE svg PUBLIC "-//W3C//DTD SVG 20010904//EN"
 "http://www.w3.org/TR/2001/REC-SVG-20010904/DTD/svg10.dtd">
<svg version="1.0" xmlns="http://www.w3.org/2000/svg"
 width="194.000000pt" height="194.000000pt" viewBox="0 0 194.000000 194.000000"
 preserveAspectRatio="xMidYMid meet">

<g transform="translate(0.000000,194.000000) scale(0.100000,-0.100000)"
fill="#000000" stroke="none">
<path d="M895 1847 c-22 -8 -51 -19 -65 -27 -28 -15 -390 -369 -390 -382 0 -4
27 -8 60 -8 33 0 77 -7 98 -15 22 -10 100 -79 197 -175 116 -116 167 -160 184
-160 17 0 69 44 183 156 170 166 211 193 291 194 26 0 47 3 47 8 0 18 -368
372 -409 392 -54 27 -142 34 -196 17z"/>
<path d="M238 1233 c-146 -150 -164 -182 -156 -291 3 -37 13 -83 23 -102 10
-19 72 -90 138 -157 l121 -123 57 0 c32 0 82 5 111 11 50 11 62 21 224 180
l171 169 47 0 c26 0 59 -6 74 -14 15 -8 92 -81 172 -161 80 -81 159 -153 177
-161 19 -8 66 -14 111 -14 l78 0 126 128 c116 116 128 132 143 186 21 71 16
136 -15 198 -12 24 -74 96 -138 161 l-117 117 -75 0 c-52 0 -87 -6 -115 -19
-24 -11 -99 -79 -185 -166 -150 -151 -180 -175 -225 -175 -43 0 -63 16 -225
176 -93 91 -170 159 -192 169 -24 9 -68 15 -121 15 l-83 0 -126 -127z"/>
<path d="M805 692 c-90 -89 -177 -166 -198 -176 -22 -10 -68 -21 -104 -24
l-65 -7 194 -191 c171 -169 199 -193 246 -209 66 -21 160 -17 217 10 23 11
118 96 228 205 l189 185 -57 7 c-92 12 -132 40 -296 204 -98 98 -161 154 -174
154 -12 0 -81 -61 -180 -158z"/>
</g>
</svg>
